<?xml version="1.0" standalone="no"?>
<!DOCTYPE svg PUBLIC "-//W3C//DTD SVG 20010904//EN"
 "http://www.w3.org/TR/2001/REC-SVG-20010904/DTD/svg10.dtd">
<svg version="1.0" xmlns="http://www.w3.org/2000/svg"
 width="512.000000pt" height="512.000000pt" viewBox="0 0 512.000000 512.000000"
 preserveAspectRatio="xMidYMid meet">

<g transform="translate(0.000000,512.000000) scale(0.100000,-0.100000)"
fill="#000000" stroke="none">
<path d="M1945 4410 c-294 -44 -590 -284 -831 -671 -72 -118 -177 -322 -234
-459 -24 -58 -47 -108 -50 -113 -4 -4 -51 -18 -107 -32 -243 -59 -427 -151
-512 -259 -31 -39 -48 -94 -37 -121 8 -23 129 -19 341 10 98 13 181 23 182 21
2 -2 -15 -74 -37 -161 -74 -286 -94 -424 -94 -640 -1 -186 0 -191 26 -247 58
-125 158 -135 362 -37 98 48 139 84 169 149 18 39 22 75 28 260 14 372 50 707
77 718 13 5 753 -16 759 -22 1 -1 -11 -44 -28 -96 -93 -295 -134 -507 -126
-659 9 -188 54 -279 165 -333 65 -32 70 -33 197 -33 109 0 141 4 199 23 312
105 615 414 634 648 6 77 -13 161 -39 175 -26 14 -71 -14 -122 -75 -54 -65
-287 -278 -351 -320 -132 -87 -176 -53 -176 136 0 116 7 141 180 602 152 409
195 591 194 836 0 193 -13 262 -74 385 -84 169 -204 260 -399 299 -87 18 -233
26 -296 16z m106 -501 c19 -7 51 -28 72 -48 86 -81 99 -262 38 -506 -16 -66
-35 -133 -41 -149 l-11 -29 -401 6 c-221 4 -403 9 -406 12 -9 9 49 170 98 273
117 243 262 389 437 437 60 17 169 19 214 4z"/>
<path d="M3587 4295 c-280 -46 -534 -156 -674 -291 -57 -56 -63 -65 -63 -103
0 -90 80 -96 360 -28 102 25 223 53 270 62 119 23 332 31 401 15 68 -16 179
-67 179 -83 0 -7 -22 -73 -48 -148 -189 -525 -314 -1038 -406 -1653 -14 -94
-29 -173 -33 -177 -5 -5 -93 -39 -198 -77 -603 -220 -864 -370 -909 -523 -16
-51 -10 -149 12 -224 50 -169 220 -290 487 -346 90 -20 326 -17 404 4 161 43
264 101 376 212 89 87 165 196 225 320 54 111 154 366 175 446 l17 66 77 33
c198 86 374 182 474 258 169 128 237 224 240 338 5 157 -57 169 -183 39 -83
-86 -220 -170 -410 -250 -36 -15 -79 -34 -95 -41 l-31 -12 98 486 c154 768
238 1301 221 1407 -8 55 -36 107 -75 140 -52 44 -165 92 -274 115 -131 29
-483 37 -617 15z m-84 -2797 c-41 -174 -86 -294 -143 -378 -88 -130 -170 -162
-313 -125 -149 39 -239 124 -223 211 14 70 109 120 446 236 124 42 228 77 232
77 3 1 4 -9 1 -21z"/>
</g>
</svg>
