<?xml version="1.0" standalone="no"?>
<!DOCTYPE svg PUBLIC "-//W3C//DTD SVG 20010904//EN"
 "http://www.w3.org/TR/2001/REC-SVG-20010904/DTD/svg10.dtd">
<svg version="1.0" xmlns="http://www.w3.org/2000/svg"
 width="1668.000000pt" height="1668.000000pt" viewBox="0 0 1668.000000 1668.000000"
 preserveAspectRatio="xMidYMid meet">
<metadata>
Created by potrace 1.14, written by Peter Selinger 2001-2017
</metadata>
<g transform="translate(0.000000,1668.000000) scale(0.100000,-0.100000)"
fill="#000000" stroke="none">
<path d="M7930 16669 c-2288 -111 -4409 -1150 -5913 -2898 -984 -1143 -1637
-2523 -1892 -4002 -352 -2046 54 -4112 1153 -5864 546 -870 1298 -1676 2139
-2294 1033 -757 2235 -1269 3494 -1486 2046 -352 4112 54 5864 1153 870 546
1676 1298 2294 2139 896 1222 1440 2666 1576 4179 178 1992 -360 3973 -1515
5584 -1284 1791 -3211 3004 -5361 3375 -610 105 -1232 143 -1839 114z m5230
-5246 c0 -5 -15 -70 -34 -146 -21 -90 -40 -145 -52 -156 -11 -10 -100 -87
-199 -172 -786 -675 -1391 -1264 -1798 -1749 -639 -764 -957 -1421 -996 -2063
-29 -473 91 -735 441 -967 65 -43 248 -144 410 -225 394 -199 529 -279 694
-415 236 -194 345 -466 305 -762 -56 -421 -307 -744 -866 -1113 -191 -126
-520 -315 -529 -304 -1 2 -47 75 -101 163 -76 124 -95 160 -84 167 685 399
909 642 909 989 0 155 -31 236 -126 339 -88 96 -212 171 -579 351 -458 225
-627 328 -817 497 -245 218 -391 478 -443 788 -20 119 -23 354 -5 500 74 631
418 1283 1055 2005 171 194 688 708 905 901 226 200 479 417 705 604 99 81
183 151 186 154 4 3 10 16 14 29 l6 22 -890 0 c-696 0 -891 3 -891 12 0 13
108 524 115 546 4 9 279 12 1335 12 731 0 1330 -3 1330 -7z m-8754 -1260 l280
-808 1275 0 1274 0 340 807 340 808 373 0 c205 0 371 -3 369 -7 -2 -5 -568
-1296 -1257 -2870 l-1253 -2863 -343 0 -343 0 -21 58 c-12 31 -491 1315 -1065
2852 -574 1537 -1046 2803 -1050 2813 -7 16 16 17 397 17 l404 0 280 -807z"/>
<path d="M4934 8638 c18 -51 228 -645 466 -1320 239 -676 437 -1228 440 -1228
3 0 257 591 564 1313 308 721 561 1315 563 1320 2 4 -462 7 -1031 7 l-1036 0
34 -92z"/>
</g>
</svg>
